<?xml version="1.0" encoding="UTF-8" standalone="no"?>
<!DOCTYPE svg PUBLIC "-//W3C//DTD SVG 1.1//EN" "http://www.w3.org/Graphics/SVG/1.1/DTD/svg11.dtd">
<svg width="100%" height="100%" viewBox="0 0 220 260" version="1.1" xmlns="http://www.w3.org/2000/svg" xmlns:xlink="http://www.w3.org/1999/xlink" xml:space="preserve" xmlns:serif="http://www.serif.com/" style="fill-rule:evenodd;clip-rule:evenodd;stroke-linejoin:round;stroke-miterlimit:2;">
    <g id="Layer1">
    </g>
    <g transform="matrix(0.673027,0,0,0.67897,62.4834,74.4488)">
        <g id="Layer2">
            <path d="M7.264,128.795L7.057,77.394C8.067,37.73 35.334,12.489 68.286,9.435C139.811,3.899 167.623,88.42 117.03,127.697C92.677,147.712 58.236,140.798 21.76,141.533C10.257,141.764 7.264,128.795 7.264,128.795ZM62.618,84.864L62.69,73.736C44.932,71.072 28.892,80.74 28.583,99.26C29.641,113.248 37.844,121.644 53.742,123.322C69.647,121.456 78.248,112.808 78.919,96.797L78.856,84.637L86.661,84.523C97.89,85.989 97.002,71.36 86.287,73.463L78.973,73.545L78.808,56.146C81.562,45.641 94.026,44.581 98.911,52.631C100.347,54.996 99.327,57.749 99.566,59.073C100.308,67.952 111.483,66.081 110.996,58.5C111.584,46.702 104.591,39.772 94.224,36.805C82.833,34.543 73.892,39.052 68.497,50.258C67.886,52.62 67.396,55.27 67.604,58.216L67.637,97.78C67.079,106.367 62.679,111.305 53.75,111.942C43.824,110.84 39.786,105.367 39.977,96.756C41.836,82.115 60.978,84.696 62.618,84.864Z" style="fill:white;"/>
        </g>
    </g>
</svg>
